# MagicaVoxel @ Ephtracy

# material
mtllib user.mtl
usemtl palette

# normals
vn -1 0 0
vn 1 0 0
vn 0 0 1
vn 0 0 -1
vn 0 -1 0
vn 0 1 0

# texcoords
vt 0.306641 0.5
vt 0.958984 0.5

# verts
v -8 0 5
v -8 0 -4
v -8 1 7
v -8 1 5
v -8 1 -5
v -8 1 -7
v -8 3 8
v -8 3 7
v -8 3 -7
v -8 3 -8
v -8 9 8
v -8 9 7
v -8 10 8
v -8 10 7
v -8 13 8
v -8 13 7
v -8 13 -7
v -8 13 -8
v -8 15 7
v -8 15 5
v -8 15 -5
v -8 15 -7
v -8 16 5
v -8 16 -4
v -7 0 7
v -7 0 5
v -7 0 -4
v -7 0 -7
v -7 1 8
v -7 1 7
v -7 1 5
v -7 1 -5
v -7 1 -7
v -7 1 -8
v -7 3 8
v -7 3 7
v -7 3 -7
v -7 3 -8
v -7 13 8
v -7 13 7
v -7 13 -7
v -7 13 -8
v -7 15 8
v -7 15 7
v -7 15 5
v -7 15 -4
v -7 15 -5
v -7 15 -7
v -7 15 -8
v -7 16 7
v -7 16 5
v -5 0 8
v -5 0 7
v -5 0 -7
v -5 0 -8
v -5 1 8
v -5 1 7
v -5 1 -7
v -5 1 -8
v -5 15 8
v -5 15 7
v -5 15 -5
v -5 15 -6
v -5 16 8
v -5 16 7
v -5 16 -5
v -5 16 -6
v -4 4 8
v -4 4 7
v -4 10 8
v -4 10 7
v -4 15 -6
v -4 15 -7
v -4 16 -6
v -4 16 -7
v -3 15 -7
v -3 15 -8
v -3 16 -7
v -3 16 -8
v 2 6 6
v 2 6 5
v 2 8 6
v 2 8 5
v 3 5 8
v 3 5 7
v 3 5 6
v 3 9 8
v 3 9 7
v 3 9 6
v 5 3 8
v 5 3 7
v 5 9 8
v 5 9 7
v 6 10 8
v 6 10 7
v 6 12 8
v 6 12 7
v -6 10 8
v -6 10 7
v -6 12 8
v -6 12 7
v -5 3 8
v -5 3 7
v -5 9 8
v -5 9 7
v -3 5 8
v -3 5 7
v -3 5 6
v -3 9 8
v -3 9 7
v -3 9 6
v -2 6 6
v -2 6 5
v -2 8 6
v -2 8 5
v 3 15 -7
v 3 15 -8
v 3 16 -7
v 3 16 -8
v 4 4 8
v 4 4 7
v 4 10 8
v 4 10 7
v 4 15 -6
v 4 15 -7
v 4 16 -6
v 4 16 -7
v 5 0 8
v 5 0 7
v 5 0 -7
v 5 0 -8
v 5 1 8
v 5 1 7
v 5 1 -7
v 5 1 -8
v 5 15 8
v 5 15 7
v 5 15 -5
v 5 15 -6
v 5 16 8
v 5 16 7
v 5 16 -5
v 5 16 -6
v 7 0 7
v 7 0 5
v 7 0 -4
v 7 0 -7
v 7 1 8
v 7 1 7
v 7 1 5
v 7 1 -5
v 7 1 -7
v 7 1 -8
v 7 3 8
v 7 3 7
v 7 3 -7
v 7 3 -8
v 7 13 8
v 7 13 7
v 7 13 -7
v 7 13 -8
v 7 15 8
v 7 15 7
v 7 15 5
v 7 15 -4
v 7 15 -5
v 7 15 -7
v 7 15 -8
v 7 16 7
v 7 16 5
v 8 0 5
v 8 0 -4
v 8 1 7
v 8 1 5
v 8 1 -5
v 8 1 -7
v 8 3 8
v 8 3 7
v 8 3 -7
v 8 3 -8
v 8 9 8
v 8 9 7
v 8 10 8
v 8 10 7
v 8 13 8
v 8 13 7
v 8 13 -7
v 8 13 -8
v 8 15 7
v 8 15 5
v 8 15 -5
v 8 15 -7
v 8 16 5
v 8 16 -4
v -8 3 8
v -8 9 8
v -8 10 8
v -8 13 8
v -7 1 8
v -7 3 8
v -7 13 8
v -7 15 8
v -6 10 8
v -6 12 8
v -5 0 8
v -5 1 8
v -5 3 8
v -5 9 8
v -5 15 8
v -5 16 8
v -4 4 8
v -4 10 8
v -3 5 8
v -3 9 8
v 3 5 8
v 3 9 8
v 4 4 8
v 4 10 8
v 5 0 8
v 5 1 8
v 5 3 8
v 5 9 8
v 5 15 8
v 5 16 8
v 6 10 8
v 6 12 8
v 7 1 8
v 7 3 8
v 7 13 8
v 7 15 8
v 8 3 8
v 8 9 8
v 8 10 8
v 8 13 8
v -8 1 7
v -8 3 7
v -8 9 7
v -8 10 7
v -8 13 7
v -8 15 7
v -7 0 7
v -7 1 7
v -7 3 7
v -7 9 7
v -7 10 7
v -7 13 7
v -7 15 7
v -7 16 7
v -6 10 7
v -6 12 7
v -5 0 7
v -5 1 7
v -5 3 7
v -5 9 7
v -5 15 7
v -5 16 7
v -4 4 7
v -4 10 7
v 4 4 7
v 4 10 7
v 5 0 7
v 5 1 7
v 5 3 7
v 5 9 7
v 5 15 7
v 5 16 7
v 6 10 7
v 6 12 7
v 7 0 7
v 7 1 7
v 7 3 7
v 7 9 7
v 7 10 7
v 7 13 7
v 7 15 7
v 7 16 7
v 8 1 7
v 8 3 7
v 8 9 7
v 8 10 7
v 8 13 7
v 8 15 7
v -3 5 6
v -3 9 6
v -2 6 6
v -2 8 6
v 2 6 6
v 2 8 6
v 3 5 6
v 3 9 6
v -8 0 5
v -8 1 5
v -8 15 5
v -8 16 5
v -7 0 5
v -7 1 5
v -7 15 5
v -7 16 5
v -2 6 5
v -2 8 5
v 2 6 5
v 2 8 5
v 7 0 5
v 7 1 5
v 7 15 5
v 7 16 5
v 8 0 5
v 8 1 5
v 8 15 5
v 8 16 5
v -8 1 -5
v -8 15 -5
v -7 1 -5
v -7 15 -5
v -5 15 -5
v -5 16 -5
v 5 15 -5
v 5 16 -5
v 7 1 -5
v 7 15 -5
v 8 1 -5
v 8 15 -5
v -8 0 -4
v -8 16 -4
v -7 0 -4
v -7 15 -4
v 7 0 -4
v 7 15 -4
v 8 0 -4
v 8 16 -4
v -5 15 -6
v -5 16 -6
v -4 15 -6
v -4 16 -6
v 4 15 -6
v 4 16 -6
v 5 15 -6
v 5 16 -6
v -8 1 -7
v -8 3 -7
v -8 13 -7
v -8 15 -7
v -7 0 -7
v -7 1 -7
v -7 3 -7
v -7 13 -7
v -7 15 -7
v -5 0 -7
v -5 1 -7
v -4 15 -7
v -4 16 -7
v -3 15 -7
v -3 16 -7
v 3 15 -7
v 3 16 -7
v 4 15 -7
v 4 16 -7
v 5 0 -7
v 5 1 -7
v 7 0 -7
v 7 1 -7
v 7 3 -7
v 7 13 -7
v 7 15 -7
v 8 1 -7
v 8 3 -7
v 8 13 -7
v 8 15 -7
v -8 3 -8
v -8 13 -8
v -7 1 -8
v -7 3 -8
v -7 13 -8
v -7 15 -8
v -5 0 -8
v -5 1 -8
v -3 15 -8
v -3 16 -8
v 3 15 -8
v 3 16 -8
v 5 0 -8
v 5 1 -8
v 7 1 -8
v 7 3 -8
v 7 13 -8
v 7 15 -8
v 8 3 -8
v 8 13 -8
v -5 0 8
v 5 0 8
v -7 0 7
v -5 0 7
v 5 0 7
v 7 0 7
v -8 0 5
v -7 0 5
v 7 0 5
v 8 0 5
v -8 0 -4
v -7 0 -4
v 7 0 -4
v 8 0 -4
v -7 0 -7
v -5 0 -7
v 5 0 -7
v 7 0 -7
v -5 0 -8
v 5 0 -8
v -7 1 8
v -5 1 8
v 5 1 8
v 7 1 8
v -8 1 7
v -7 1 7
v -5 1 7
v 5 1 7
v 7 1 7
v 8 1 7
v -8 1 5
v -7 1 5
v 7 1 5
v 8 1 5
v -8 1 -5
v -7 1 -5
v 7 1 -5
v 8 1 -5
v -8 1 -7
v -7 1 -7
v -5 1 -7
v 5 1 -7
v 7 1 -7
v 8 1 -7
v -7 1 -8
v -5 1 -8
v 5 1 -8
v 7 1 -8
v -8 3 8
v -7 3 8
v 7 3 8
v 8 3 8
v -8 3 7
v -7 3 7
v 7 3 7
v 8 3 7
v -8 3 -7
v -7 3 -7
v 7 3 -7
v 8 3 -7
v -8 3 -8
v -7 3 -8
v 7 3 -8
v 8 3 -8
v -4 4 8
v 4 4 8
v -4 4 7
v 4 4 7
v -2 8 6
v 2 8 6
v -2 8 5
v 2 8 5
v -3 9 8
v 3 9 8
v -3 9 7
v 3 9 7
v -3 9 6
v 3 9 6
v -8 10 8
v -6 10 8
v 6 10 8
v 8 10 8
v -8 10 7
v -7 10 7
v -6 10 7
v 6 10 7
v 7 10 7
v 8 10 7
v -6 12 8
v 6 12 8
v -6 12 7
v 6 12 7
v -5 3 8
v 5 3 8
v -5 3 7
v 5 3 7
v -3 5 8
v 3 5 8
v -3 5 7
v 3 5 7
v -3 5 6
v 3 5 6
v -2 6 6
v 2 6 6
v -2 6 5
v 2 6 5
v -8 9 8
v -5 9 8
v 5 9 8
v 8 9 8
v -8 9 7
v -7 9 7
v -5 9 7
v 5 9 7
v 7 9 7
v 8 9 7
v -4 10 8
v 4 10 8
v -4 10 7
v 4 10 7
v -8 13 8
v -7 13 8
v 7 13 8
v 8 13 8
v -8 13 7
v -7 13 7
v 7 13 7
v 8 13 7
v -8 13 -7
v -7 13 -7
v 7 13 -7
v 8 13 -7
v -8 13 -8
v -7 13 -8
v 7 13 -8
v 8 13 -8
v -7 15 8
v -5 15 8
v 5 15 8
v 7 15 8
v -8 15 7
v -7 15 7
v -5 15 7
v 5 15 7
v 7 15 7
v 8 15 7
v -8 15 5
v -7 15 5
v 7 15 5
v 8 15 5
v -7 15 -4
v 7 15 -4
v -8 15 -5
v -7 15 -5
v -5 15 -5
v 5 15 -5
v 7 15 -5
v 8 15 -5
v -5 15 -6
v -4 15 -6
v 4 15 -6
v 5 15 -6
v -8 15 -7
v -7 15 -7
v -4 15 -7
v -3 15 -7
v 3 15 -7
v 4 15 -7
v 7 15 -7
v 8 15 -7
v -7 15 -8
v -3 15 -8
v 3 15 -8
v 7 15 -8
v -5 16 8
v 5 16 8
v -7 16 7
v -5 16 7
v 5 16 7
v 7 16 7
v -8 16 5
v -7 16 5
v 7 16 5
v 8 16 5
v -8 16 -4
v 8 16 -4
v -5 16 -5
v 5 16 -5
v -5 16 -6
v -4 16 -6
v 4 16 -6
v 5 16 -6
v -4 16 -7
v -3 16 -7
v 3 16 -7
v 4 16 -7
v -3 16 -8
v 3 16 -8

# faces
f 4/2/1 2/2/1 1/2/1
f 8/2/1 4/2/1 3/2/1
f 9/2/1 6/2/1 5/2/1
f 11/2/1 8/2/1 7/2/1
f 12/2/1 4/2/1 8/2/1
f 12/2/1 8/2/1 11/2/1
f 14/2/1 4/2/1 12/2/1
f 15/2/1 14/2/1 13/2/1
f 16/2/1 4/2/1 14/2/1
f 16/2/1 14/2/1 15/2/1
f 17/2/1 10/2/1 9/2/1
f 17/2/1 9/2/1 5/2/1
f 18/2/1 10/2/1 17/2/1
f 19/2/1 4/2/1 16/2/1
f 20/2/1 2/2/1 4/2/1
f 20/2/1 4/2/1 19/2/1
f 21/2/1 17/2/1 5/2/1
f 22/2/1 17/2/1 21/2/1
f 23/2/1 2/2/1 20/2/1
f 24/2/1 2/2/1 23/2/1
f 30/1/1 26/1/1 25/1/1
f 31/1/1 26/1/1 30/1/1
f 32/1/1 28/1/1 27/1/1
f 33/1/1 28/1/1 32/1/1
f 35/2/1 30/2/1 29/2/1
f 36/2/1 30/2/1 35/2/1
f 37/2/1 34/2/1 33/2/1
f 38/2/1 34/2/1 37/2/1
f 43/2/1 40/2/1 39/2/1
f 44/2/1 40/2/1 43/2/1
f 46/1/1 32/1/1 27/1/1
f 47/1/1 32/1/1 46/1/1
f 48/2/1 42/2/1 41/2/1
f 49/2/1 42/2/1 48/2/1
f 50/2/1 45/2/1 44/2/1
f 51/2/1 45/2/1 50/2/1
f 56/2/1 53/2/1 52/2/1
f 57/2/1 53/2/1 56/2/1
f 58/2/1 55/2/1 54/2/1
f 59/2/1 55/2/1 58/2/1
f 64/2/1 61/2/1 60/2/1
f 65/2/1 61/2/1 64/2/1
f 66/2/1 63/2/1 62/2/1
f 67/2/1 63/2/1 66/2/1
f 70/2/1 69/2/1 68/2/1
f 71/2/1 69/2/1 70/2/1
f 74/2/1 73/2/1 72/2/1
f 75/2/1 73/2/1 74/2/1
f 78/2/1 77/2/1 76/2/1
f 79/2/1 77/2/1 78/2/1
f 82/1/1 81/1/1 80/1/1
f 83/1/1 81/1/1 82/1/1
f 87/2/1 85/2/1 84/2/1
f 88/1/1 86/1/1 85/1/1
f 88/2/1 85/2/1 87/2/1
f 89/1/1 86/1/1 88/1/1
f 92/2/1 91/2/1 90/2/1
f 93/2/1 91/2/1 92/2/1
f 96/2/1 95/2/1 94/2/1
f 97/2/1 95/2/1 96/2/1
f 98/2/2 99/2/2 100/2/2
f 100/2/2 99/2/2 101/2/2
f 102/2/2 103/2/2 104/2/2
f 104/2/2 103/2/2 105/2/2
f 106/2/2 107/2/2 109/2/2
f 107/1/2 108/1/2 110/1/2
f 109/2/2 107/2/2 110/2/2
f 110/1/2 108/1/2 111/1/2
f 112/1/2 113/1/2 114/1/2
f 114/1/2 113/1/2 115/1/2
f 116/2/2 117/2/2 118/2/2
f 118/2/2 117/2/2 119/2/2
f 120/2/2 121/2/2 122/2/2
f 122/2/2 121/2/2 123/2/2
f 124/2/2 125/2/2 126/2/2
f 126/2/2 125/2/2 127/2/2
f 128/2/2 129/2/2 132/2/2
f 132/2/2 129/2/2 133/2/2
f 130/2/2 131/2/2 134/2/2
f 134/2/2 131/2/2 135/2/2
f 136/2/2 137/2/2 140/2/2
f 140/2/2 137/2/2 141/2/2
f 138/2/2 139/2/2 142/2/2
f 142/2/2 139/2/2 143/2/2
f 144/1/2 145/1/2 149/1/2
f 149/1/2 145/1/2 150/1/2
f 146/1/2 147/1/2 151/1/2
f 151/1/2 147/1/2 152/1/2
f 148/2/2 149/2/2 154/2/2
f 154/2/2 149/2/2 155/2/2
f 152/2/2 153/2/2 156/2/2
f 156/2/2 153/2/2 157/2/2
f 158/2/2 159/2/2 162/2/2
f 162/2/2 159/2/2 163/2/2
f 146/1/2 151/1/2 165/1/2
f 165/1/2 151/1/2 166/1/2
f 160/2/2 161/2/2 167/2/2
f 167/2/2 161/2/2 168/2/2
f 163/2/2 164/2/2 169/2/2
f 169/2/2 164/2/2 170/2/2
f 171/2/2 172/2/2 174/2/2
f 173/2/2 174/2/2 178/2/2
f 175/2/2 176/2/2 179/2/2
f 177/2/2 178/2/2 181/2/2
f 178/2/2 174/2/2 182/2/2
f 181/2/2 178/2/2 182/2/2
f 182/2/2 174/2/2 184/2/2
f 183/2/2 184/2/2 185/2/2
f 184/2/2 174/2/2 186/2/2
f 185/2/2 184/2/2 186/2/2
f 179/2/2 180/2/2 187/2/2
f 175/2/2 179/2/2 187/2/2
f 187/2/2 180/2/2 188/2/2
f 186/2/2 174/2/2 189/2/2
f 174/2/2 172/2/2 190/2/2
f 189/2/2 174/2/2 190/2/2
f 175/2/2 187/2/2 191/2/2
f 191/2/2 187/2/2 192/2/2
f 190/2/2 172/2/2 193/2/2
f 193/2/2 172/2/2 194/2/2
f 200/2/3 196/2/3 195/2/3
f 201/2/3 198/2/3 197/2/3
f 203/2/3 201/2/3 197/2/3
f 203/2/3 202/2/3 201/2/3
f 204/2/3 202/2/3 203/2/3
f 206/2/3 200/2/3 199/2/3
f 207/2/3 196/2/3 200/2/3
f 207/2/3 200/2/3 206/2/3
f 208/2/3 196/2/3 207/2/3
f 209/2/3 202/2/3 204/2/3
f 213/2/3 212/2/3 211/2/3
f 214/2/3 212/2/3 213/2/3
f 215/2/3 213/2/3 211/2/3
f 216/2/3 212/2/3 214/2/3
f 217/2/3 215/2/3 211/2/3
f 217/2/3 216/2/3 215/2/3
f 218/2/3 212/2/3 216/2/3
f 218/2/3 216/2/3 217/2/3
f 219/2/3 206/2/3 205/2/3
f 219/2/3 207/2/3 206/2/3
f 220/2/3 207/2/3 219/2/3
f 221/2/3 207/2/3 220/2/3
f 223/2/3 210/2/3 209/2/3
f 223/2/3 209/2/3 204/2/3
f 224/2/3 210/2/3 223/2/3
f 226/2/3 223/2/3 204/2/3
f 227/2/3 222/2/3 221/2/3
f 227/2/3 221/2/3 220/2/3
f 228/2/3 222/2/3 227/2/3
f 229/2/3 226/2/3 225/2/3
f 229/2/3 223/2/3 226/2/3
f 230/2/3 223/2/3 229/2/3
f 231/2/3 222/2/3 228/2/3
f 232/2/3 222/2/3 231/2/3
f 233/2/3 229/2/3 225/2/3
f 234/2/3 229/2/3 233/2/3
f 242/2/3 236/2/3 235/2/3
f 243/2/3 236/2/3 242/2/3
f 244/2/3 238/2/3 237/2/3
f 245/2/3 238/2/3 244/2/3
f 246/2/3 240/2/3 239/2/3
f 247/2/3 240/2/3 246/2/3
f 249/1/3 245/1/3 244/1/3
f 251/1/3 242/1/3 241/1/3
f 252/1/3 242/1/3 251/1/3
f 254/1/3 250/1/3 249/1/3
f 254/1/3 249/1/3 244/1/3
f 255/2/3 248/2/3 247/2/3
f 256/2/3 248/2/3 255/2/3
f 257/1/3 254/1/3 253/1/3
f 258/1/3 250/1/3 254/1/3
f 258/1/3 254/1/3 257/1/3
f 259/1/3 257/1/3 253/1/3
f 260/1/3 250/1/3 258/1/3
f 263/1/3 259/1/3 253/1/3
f 263/1/3 260/1/3 259/1/3
f 264/1/3 260/1/3 263/1/3
f 267/1/3 250/1/3 260/1/3
f 267/1/3 260/1/3 264/1/3
f 268/1/3 250/1/3 267/1/3
f 269/1/3 262/1/3 261/1/3
f 270/1/3 262/1/3 269/1/3
f 272/1/3 267/1/3 264/1/3
f 273/1/3 267/1/3 272/1/3
f 275/2/3 266/2/3 265/2/3
f 276/2/3 266/2/3 275/2/3
f 277/2/3 271/2/3 270/2/3
f 278/2/3 271/2/3 277/2/3
f 279/2/3 273/2/3 272/2/3
f 280/2/3 273/2/3 279/2/3
f 281/2/3 275/2/3 274/2/3
f 282/2/3 275/2/3 281/2/3
f 285/1/3 284/1/3 283/1/3
f 286/1/3 284/1/3 285/1/3
f 287/1/3 285/1/3 283/1/3
f 288/1/3 284/1/3 286/1/3
f 289/1/3 287/1/3 283/1/3
f 289/1/3 288/1/3 287/1/3
f 290/1/3 284/1/3 288/1/3
f 290/1/3 288/1/3 289/1/3
f 295/2/3 292/2/3 291/2/3
f 296/2/3 292/2/3 295/2/3
f 297/2/3 294/2/3 293/2/3
f 298/2/3 294/2/3 297/2/3
f 301/1/3 300/1/3 299/1/3
f 302/1/3 300/1/3 301/1/3
f 307/2/3 304/2/3 303/2/3
f 308/2/3 304/2/3 307/2/3
f 309/2/3 306/2/3 305/2/3
f 310/2/3 306/2/3 309/2/3
f 313/2/3 312/2/3 311/2/3
f 314/2/3 312/2/3 313/2/3
f 317/2/3 316/2/3 315/2/3
f 318/2/3 316/2/3 317/2/3
f 321/2/3 320/2/3 319/2/3
f 322/2/3 320/2/3 321/2/3
f 323/2/4 324/2/4 325/2/4
f 325/2/4 324/2/4 326/2/4
f 326/2/4 324/2/4 328/2/4
f 327/2/4 328/2/4 329/2/4
f 328/2/4 324/2/4 330/2/4
f 329/2/4 328/2/4 330/2/4
f 331/2/4 332/2/4 333/2/4
f 333/2/4 332/2/4 334/2/4
f 335/2/4 336/2/4 337/2/4
f 337/2/4 336/2/4 338/2/4
f 339/2/4 340/2/4 344/2/4
f 344/2/4 340/2/4 345/2/4
f 341/2/4 342/2/4 346/2/4
f 346/2/4 342/2/4 347/2/4
f 343/1/4 344/1/4 348/1/4
f 348/1/4 344/1/4 349/1/4
f 350/2/4 351/2/4 352/2/4
f 352/2/4 351/2/4 353/2/4
f 354/2/4 355/2/4 356/2/4
f 356/2/4 355/2/4 357/2/4
f 358/1/4 359/1/4 360/1/4
f 360/1/4 359/1/4 361/1/4
f 361/2/4 362/2/4 365/2/4
f 365/2/4 362/2/4 366/2/4
f 363/2/4 364/2/4 367/2/4
f 367/2/4 364/2/4 368/2/4
f 369/2/4 370/2/4 372/2/4
f 372/2/4 370/2/4 373/2/4
f 371/2/4 372/2/4 376/2/4
f 373/2/4 374/2/4 376/2/4
f 372/2/4 373/2/4 376/2/4
f 376/2/4 374/2/4 377/2/4
f 375/2/4 376/2/4 377/2/4
f 375/2/4 377/2/4 379/2/4
f 377/2/4 378/2/4 379/2/4
f 379/2/4 378/2/4 380/2/4
f 375/2/4 379/2/4 381/2/4
f 381/2/4 379/2/4 382/2/4
f 382/2/4 379/2/4 383/2/4
f 383/2/4 379/2/4 384/2/4
f 384/2/4 379/2/4 385/2/4
f 385/2/4 379/2/4 386/2/4
f 384/2/4 385/2/4 387/2/4
f 387/2/4 385/2/4 388/2/4
f 392/2/5 390/2/5 389/2/5
f 393/2/5 390/2/5 392/2/5
f 396/1/5 392/1/5 391/1/5
f 396/1/5 394/1/5 393/1/5
f 396/1/5 393/1/5 392/1/5
f 397/1/5 394/1/5 396/1/5
f 399/2/5 396/2/5 395/2/5
f 400/1/5 397/1/5 396/1/5
f 400/2/5 396/2/5 399/2/5
f 401/2/5 398/2/5 397/2/5
f 401/1/5 397/1/5 400/1/5
f 402/2/5 398/2/5 401/2/5
f 403/1/5 401/1/5 400/1/5
f 404/1/5 401/1/5 403/1/5
f 405/1/5 401/1/5 404/1/5
f 406/1/5 401/1/5 405/1/5
f 407/2/5 405/2/5 404/2/5
f 408/2/5 405/2/5 407/2/5
f 414/2/5 410/2/5 409/2/5
f 415/2/5 410/2/5 414/2/5
f 416/2/5 412/2/5 411/2/5
f 417/2/5 412/2/5 416/2/5
f 419/2/5 414/2/5 413/2/5
f 420/2/5 414/2/5 419/2/5
f 421/2/5 418/2/5 417/2/5
f 422/2/5 418/2/5 421/2/5
f 427/2/5 424/2/5 423/2/5
f 428/2/5 424/2/5 427/2/5
f 431/2/5 426/2/5 425/2/5
f 432/2/5 426/2/5 431/2/5
f 433/2/5 429/2/5 428/2/5
f 434/2/5 429/2/5 433/2/5
f 435/2/5 431/2/5 430/2/5
f 436/2/5 431/2/5 435/2/5
f 441/2/5 438/2/5 437/2/5
f 442/2/5 438/2/5 441/2/5
f 443/2/5 440/2/5 439/2/5
f 444/2/5 440/2/5 443/2/5
f 449/2/5 446/2/5 445/2/5
f 450/2/5 446/2/5 449/2/5
f 451/2/5 448/2/5 447/2/5
f 452/2/5 448/2/5 451/2/5
f 455/2/5 454/2/5 453/2/5
f 456/2/5 454/2/5 455/2/5
f 459/1/5 458/1/5 457/1/5
f 460/1/5 458/1/5 459/1/5
f 463/2/5 462/2/5 461/2/5
f 464/2/5 462/2/5 463/2/5
f 465/1/5 464/1/5 463/1/5
f 466/1/5 464/1/5 465/1/5
f 471/2/5 468/2/5 467/2/5
f 472/2/5 468/2/5 471/2/5
f 473/2/5 468/2/5 472/2/5
f 474/2/5 470/2/5 469/2/5
f 475/2/5 470/2/5 474/2/5
f 476/2/5 470/2/5 475/2/5
f 479/2/5 478/2/5 477/2/5
f 480/2/5 478/2/5 479/2/5
f 481/2/6 482/2/6 483/2/6
f 483/2/6 482/2/6 484/2/6
f 485/2/6 486/2/6 487/2/6
f 487/2/6 486/2/6 488/2/6
f 487/1/6 488/1/6 489/1/6
f 489/1/6 488/1/6 490/1/6
f 491/1/6 492/1/6 493/1/6
f 493/1/6 492/1/6 494/1/6
f 495/2/6 496/2/6 499/2/6
f 499/2/6 496/2/6 500/2/6
f 500/2/6 496/2/6 501/2/6
f 497/2/6 498/2/6 502/2/6
f 502/2/6 498/2/6 503/2/6
f 503/2/6 498/2/6 504/2/6
f 505/2/6 506/2/6 507/2/6
f 507/2/6 506/2/6 508/2/6
f 509/2/6 510/2/6 513/2/6
f 513/2/6 510/2/6 514/2/6
f 511/2/6 512/2/6 515/2/6
f 515/2/6 512/2/6 516/2/6
f 517/2/6 518/2/6 521/2/6
f 521/2/6 518/2/6 522/2/6
f 519/2/6 520/2/6 523/2/6
f 523/2/6 520/2/6 524/2/6
f 525/2/6 526/2/6 530/2/6
f 530/2/6 526/2/6 531/2/6
f 527/2/6 528/2/6 532/2/6
f 532/2/6 528/2/6 533/2/6
f 529/2/6 530/2/6 535/2/6
f 535/2/6 530/2/6 536/2/6
f 533/2/6 534/2/6 537/2/6
f 537/2/6 534/2/6 538/2/6
f 539/1/6 540/1/6 542/1/6
f 542/1/6 540/1/6 543/1/6
f 543/1/6 540/1/6 544/1/6
f 544/1/6 540/1/6 545/1/6
f 542/1/6 543/1/6 547/1/6
f 544/1/6 545/1/6 550/1/6
f 541/2/6 542/2/6 551/2/6
f 547/1/6 548/1/6 552/1/6
f 551/2/6 542/2/6 552/2/6
f 542/1/6 547/1/6 552/1/6
f 552/1/6 548/1/6 553/1/6
f 549/1/6 550/1/6 556/1/6
f 545/2/6 546/2/6 557/2/6
f 550/1/6 545/1/6 557/1/6
f 556/1/6 550/1/6 557/1/6
f 557/2/6 546/2/6 558/2/6
f 553/2/6 554/2/6 559/2/6
f 552/2/6 553/2/6 559/2/6
f 559/2/6 554/2/6 560/2/6
f 555/2/6 556/2/6 561/2/6
f 556/2/6 557/2/6 561/2/6
f 561/2/6 557/2/6 562/2/6
f 563/2/6 564/2/6 566/2/6
f 566/2/6 564/2/6 567/2/6
f 565/2/6 566/2/6 570/2/6
f 567/2/6 568/2/6 570/2/6
f 566/2/6 567/2/6 570/2/6
f 570/2/6 568/2/6 571/2/6
f 569/2/6 570/2/6 573/2/6
f 571/2/6 572/2/6 573/2/6
f 570/2/6 571/2/6 573/2/6
f 573/2/6 572/2/6 574/2/6
f 575/2/6 576/2/6 577/2/6
f 577/2/6 576/2/6 578/2/6
f 578/2/6 576/2/6 579/2/6
f 579/2/6 576/2/6 580/2/6
f 578/2/6 579/2/6 581/2/6
f 581/2/6 579/2/6 582/2/6
f 582/2/6 579/2/6 583/2/6
f 583/2/6 579/2/6 584/2/6
f 582/2/6 583/2/6 585/2/6
f 585/2/6 583/2/6 586/2/6
